<?xml version="1.0" encoding="UTF-8" standalone="no"?>
<!DOCTYPE svg PUBLIC "-//W3C//DTD SVG 1.1//EN" "http://www.w3.org/Graphics/SVG/1.1/DTD/svg11.dtd">
<svg version="1.1" xmlns="http://www.w3.org/2000/svg" xmlns:xlink="http://www.w3.org/1999/xlink" preserveAspectRatio="xMidYMid meet" viewBox="0 0 40 40" width="40" height="40"><defs><path d="M30.58 4.41C32.11 5.8 32.11 8.05 30.58 9.43C29.65 10.28 22.17 17.05 21.24 17.89C18.56 14.64 18.85 10.01 22.11 7.05C22.31 6.88 23.28 5.99 25.03 4.41C27.71 3.48 29.56 3.48 30.58 4.41Z" id="a4DjyW1nJt"></path><path d="M38.39 28.52C36.86 29.91 34.37 29.91 32.84 28.52C31.9 27.68 24.43 20.91 23.5 20.06C27.09 17.63 32.2 17.9 35.47 20.85C35.66 21.03 36.64 21.91 38.39 23.5C39.41 25.92 39.41 27.6 38.39 28.52Z" id="cJv2c4F"></path><path d="M11.76 35.59C10.23 34.2 10.23 31.95 11.76 30.57C12.69 29.72 20.17 22.95 21.1 22.11C23.79 25.36 23.49 29.99 20.23 32.95C20.03 33.13 19.06 34.01 17.31 35.59C14.63 36.52 12.78 36.52 11.76 35.59Z" id="a24RZDcbDm"></path><path d="M3.95 11.48C5.49 10.09 7.97 10.09 9.5 11.48C10.44 12.32 17.91 19.09 18.85 19.94C15.25 22.37 10.14 22.1 6.87 19.15C6.68 18.97 5.7 18.09 3.95 16.5C2.93 14.08 2.93 12.4 3.95 11.48Z" id="dyTQVQjRc"></path><path d="M26.09 26.5C26.54 26.91 30.13 30.16 30.58 30.57C30.59 30.58 30.6 30.59 30.62 30.6C30.62 30.89 30.62 33.21 30.62 33.5C30.62 35.46 28.86 37.05 26.69 37.05C24.93 37.05 23.44 36 22.94 34.56C25.2 32.28 26.25 29.37 26.09 26.5Z" id="e2JLXLJuYq"></path><path d="M13.99 24.46C13.54 24.87 9.95 28.12 9.5 28.52C9.49 28.53 9.48 28.54 9.47 28.55C9.15 28.55 6.59 28.55 6.27 28.55C4.1 28.55 2.34 26.96 2.34 25C2.34 23.41 3.5 22.06 5.1 21.61C7.61 23.65 10.82 24.6 13.99 24.46Z" id="a1SfRHZA32"></path><path d="M28.35 15.54C28.8 15.13 32.39 11.88 32.84 11.48C32.85 11.47 32.86 11.46 32.87 11.45C33.19 11.45 35.76 11.45 36.08 11.45C38.24 11.45 40 13.04 40 15C40 16.6 38.84 17.94 37.24 18.39C34.73 16.35 31.52 15.4 28.35 15.54Z" id="hU7Eji4NP"></path><path d="M16.25 13.5C15.8 13.09 12.21 9.84 11.76 9.43C11.75 9.42 11.74 9.41 11.73 9.4C11.73 9.11 11.73 6.79 11.73 6.5C11.73 4.54 13.48 2.95 15.65 2.95C17.41 2.95 18.9 4 19.4 5.44C17.14 7.72 16.09 10.63 16.25 13.5Z" id="a4sJPp57uE"></path><path d="M21.63 43.09L21.63 52.91L26.96 52.91L26.96 55.57L18.53 55.57L18.53 43.09L21.63 43.09Z" id="a1noN2YCm2"></path><path d="M29.86 55.27C29.08 54.88 28.47 54.34 28.04 53.66C27.62 52.97 27.41 52.18 27.41 51.29C27.41 50.39 27.62 49.61 28.04 48.93C28.47 48.24 29.08 47.7 29.86 47.32C30.64 46.93 31.56 46.73 32.6 46.73C33.64 46.73 34.55 46.93 35.33 47.32C36.11 47.7 36.71 48.24 37.13 48.93C37.57 49.61 37.78 50.39 37.78 51.29C37.78 52.18 37.57 52.97 37.13 53.66C36.71 54.34 36.11 54.88 35.33 55.27C34.55 55.65 33.64 55.84 32.6 55.84C31.56 55.84 30.64 55.65 29.86 55.27ZM34.07 52.84C34.44 52.46 34.63 51.94 34.63 51.29C34.63 50.63 34.44 50.12 34.07 49.75C33.71 49.37 33.21 49.18 32.6 49.18C31.98 49.18 31.48 49.37 31.11 49.75C30.74 50.12 30.56 50.63 30.56 51.29C30.56 51.94 30.74 52.46 31.11 52.84C31.48 53.21 31.98 53.39 32.6 53.39C33.21 53.39 33.71 53.21 34.07 52.84Z" id="aACcv8pn0"></path><path d="M41.88 59.52C41.32 59.41 40.83 59.27 40.42 59.09C40.42 58.87 40.42 57.13 40.42 56.91C41.35 57.32 42.4 57.52 43.58 57.52C44.43 57.52 45.04 57.34 45.42 56.98C45.8 56.63 46 56.1 46 55.41C46 55.36 46 54.94 46 54.89C45.66 55.19 45.24 55.42 44.73 55.59C44.24 55.76 43.72 55.84 43.16 55.84C42.27 55.84 41.49 55.65 40.81 55.27C40.13 54.89 39.6 54.35 39.21 53.66C38.84 52.97 38.65 52.18 38.65 51.29C38.65 50.38 38.84 49.58 39.21 48.89C39.59 48.2 40.11 47.67 40.79 47.3C41.47 46.92 42.25 46.73 43.12 46.73C44.32 46.73 45.32 47.11 46.1 47.86C46.1 47.8 46.1 47.51 46.1 47L49.08 47C49.08 51.79 49.08 54.45 49.08 54.98C49.08 56.47 48.63 57.63 47.73 58.45C46.84 59.27 45.46 59.68 43.58 59.68C43.02 59.68 42.45 59.63 41.88 59.52ZM45.21 53.04C45.58 52.79 45.84 52.45 46 52.04C46 51.89 46 50.69 46 50.54C45.83 50.12 45.56 49.79 45.19 49.55C44.82 49.3 44.4 49.18 43.93 49.18C43.3 49.18 42.79 49.37 42.4 49.75C42.02 50.12 41.82 50.63 41.82 51.27C41.82 51.92 42.02 52.45 42.4 52.84C42.79 53.22 43.3 53.41 43.93 53.41C44.41 53.41 44.83 53.29 45.21 53.04Z" id="m2yIcx6piV"></path><path d="M52.32 55.27C51.53 54.88 50.93 54.34 50.49 53.66C50.07 52.97 49.86 52.18 49.86 51.29C49.86 50.39 50.07 49.61 50.49 48.93C50.93 48.24 51.53 47.7 52.32 47.32C53.1 46.93 54.01 46.73 55.05 46.73C56.09 46.73 57 46.93 57.78 47.32C58.57 47.7 59.17 48.24 59.59 48.93C60.02 49.61 60.24 50.39 60.24 51.29C60.24 52.18 60.02 52.97 59.59 53.66C59.17 54.34 58.57 54.88 57.78 55.27C57 55.65 56.09 55.84 55.05 55.84C54.01 55.84 53.1 55.65 52.32 55.27ZM56.52 52.84C56.9 52.46 57.08 51.94 57.08 51.29C57.08 50.63 56.9 50.12 56.52 49.75C56.16 49.37 55.67 49.18 55.05 49.18C54.43 49.18 53.93 49.37 53.56 49.75C53.2 50.12 53.02 50.63 53.02 51.29C53.02 51.94 53.2 52.46 53.56 52.84C53.93 53.21 54.43 53.39 55.05 53.39C55.67 53.39 56.16 53.21 56.52 52.84Z" id="e6tT3MogQ"></path><path d="M151.89 -66.91L151.89 -54.43L148.4 -54.43L148.4 -66.91L151.89 -66.91Z" id="c5z1ROf4Du"></path><path d="M157.01 -63C157.01 -62.49 157.01 -62.2 157.01 -62.14C157.89 -62.89 159.01 -63.27 160.36 -63.27C161.35 -63.27 162.22 -63.08 162.99 -62.7C163.75 -62.33 164.34 -61.8 164.76 -61.11C165.18 -60.43 165.39 -59.64 165.39 -58.73C165.39 -57.84 165.18 -57.04 164.76 -56.34C164.34 -55.65 163.75 -55.11 162.99 -54.73C162.24 -54.35 161.36 -54.16 160.36 -54.16C159.73 -54.16 159.13 -54.25 158.55 -54.43C157.98 -54.59 157.51 -54.83 157.13 -55.12C157.13 -54.82 157.13 -53.28 157.13 -50.52L153.66 -50.52L153.66 -63L157.01 -63ZM161.17 -57.18C161.61 -57.56 161.82 -58.08 161.82 -58.73C161.82 -59.39 161.61 -59.9 161.17 -60.27C160.74 -60.65 160.17 -60.84 159.46 -60.84C158.93 -60.84 158.46 -60.71 158.04 -60.46C157.62 -60.23 157.31 -59.9 157.13 -59.48C157.13 -59.33 157.13 -58.12 157.13 -57.96C157.31 -57.55 157.62 -57.21 158.04 -56.96C158.46 -56.73 158.93 -56.61 159.46 -56.61C160.17 -56.61 160.74 -56.8 161.17 -57.18Z" id="eblQfdUC5"></path><path d="M127.29 55.63C126.56 55.49 125.97 55.3 125.54 55.05C125.54 54.82 125.54 52.98 125.54 52.75C126.02 53.04 126.59 53.27 127.26 53.46C127.94 53.64 128.55 53.73 129.12 53.73C129.52 53.73 129.82 53.7 130.01 53.64C130.2 53.58 130.29 53.46 130.29 53.29C130.29 53.14 130.23 53.03 130.1 52.95C129.98 52.85 129.76 52.76 129.43 52.66C129.12 52.55 128.75 52.44 128.33 52.32C127.61 52.11 127.05 51.89 126.64 51.66C126.24 51.43 125.93 51.15 125.73 50.8C125.53 50.46 125.44 50.02 125.44 49.5C125.44 48.57 125.79 47.88 126.5 47.43C127.23 46.96 128.22 46.73 129.47 46.73C130.07 46.73 130.71 46.8 131.38 46.93C132.05 47.06 132.56 47.23 132.9 47.45C132.9 47.67 132.9 49.49 132.9 49.71C132.55 49.48 132.08 49.28 131.5 49.13C130.93 48.97 130.39 48.89 129.89 48.89C129.49 48.89 129.18 48.93 128.96 49.02C128.74 49.09 128.63 49.22 128.63 49.41C128.63 49.59 128.74 49.73 128.96 49.82C129.18 49.92 129.58 50.04 130.15 50.18C130.52 50.27 130.68 50.32 130.62 50.3C131.37 50.51 131.95 50.73 132.36 50.98C132.77 51.23 133.05 51.53 133.22 51.88C133.39 52.21 133.48 52.64 133.48 53.16C133.48 53.98 133.13 54.64 132.43 55.13C131.74 55.6 130.73 55.84 129.41 55.84C128.74 55.84 128.03 55.77 127.29 55.63Z" id="b3OkjCuI7a"></path><path d="M135.47 54.86C134.9 54.2 134.62 53.34 134.62 52.27C134.62 51.92 134.62 50.16 134.62 47L137.7 47C137.7 49.95 137.7 51.58 137.7 51.91C137.7 52.9 138.14 53.39 139.01 53.39C139.41 53.39 139.77 53.3 140.1 53.11C140.43 52.92 140.7 52.64 140.91 52.27C140.91 51.92 140.91 50.16 140.91 47L143.99 47L143.99 55.57L141.01 55.57C141.01 55.01 141.01 54.7 141.01 54.64C140.65 55.04 140.21 55.33 139.7 55.54C139.18 55.74 138.65 55.84 138.08 55.84C136.93 55.84 136.06 55.51 135.47 54.86Z" id="k27lxpOYd9"></path><path d="M148.43 47C148.43 47.56 148.43 47.87 148.43 47.93C148.78 47.55 149.18 47.26 149.64 47.05C150.09 46.84 150.58 46.73 151.09 46.73C151.72 46.73 152.23 46.83 152.6 47.02C152.99 47.21 153.29 47.49 153.53 47.88C153.88 47.52 154.31 47.24 154.81 47.04C155.31 46.83 155.82 46.73 156.33 46.73C157.44 46.73 158.23 47.02 158.7 47.61C159.17 48.18 159.4 49.01 159.4 50.09C159.4 50.46 159.4 52.28 159.4 55.57L156.45 55.57C156.45 52.55 156.45 50.87 156.45 50.54C156.45 50.06 156.37 49.71 156.19 49.5C156.02 49.29 155.72 49.18 155.32 49.18C154.79 49.18 154.36 49.37 154.04 49.75C154.05 49.95 154.05 50.26 154.05 50.68C154.05 51.01 154.05 52.64 154.05 55.57L151.11 55.57C151.11 52.48 151.11 50.76 151.11 50.41C151.11 49.97 151.03 49.66 150.88 49.46C150.73 49.27 150.46 49.18 150.08 49.18C149.48 49.18 148.97 49.52 148.53 50.2C148.53 50.56 148.53 52.35 148.53 55.57L145.57 55.57L145.57 47L148.43 47Z" id="d1otxazRf"></path></defs><g><g><g><use xlink:href="#a4DjyW1nJt" opacity="1" fill="#4f9e91" fill-opacity="1"></use><g><use xlink:href="#a4DjyW1nJt" opacity="1" fill-opacity="0" stroke="#000000" stroke-width="1" stroke-opacity="0"></use></g></g><g><use xlink:href="#cJv2c4F" opacity="1" fill="#ebe1c5" fill-opacity="1"></use><g><use xlink:href="#cJv2c4F" opacity="1" fill-opacity="0" stroke="#000000" stroke-width="1" stroke-opacity="0"></use></g></g><g><use xlink:href="#a24RZDcbDm" opacity="1" fill="#ebcc6e" fill-opacity="1"></use><g><use xlink:href="#a24RZDcbDm" opacity="1" fill-opacity="0" stroke="#000000" stroke-width="1" stroke-opacity="0"></use></g></g><g><use xlink:href="#dyTQVQjRc" opacity="1" fill="#ed834e" fill-opacity="1"></use><g><use xlink:href="#dyTQVQjRc" opacity="1" fill-opacity="0" stroke="#000000" stroke-width="1" stroke-opacity="0"></use></g></g><g><use xlink:href="#e2JLXLJuYq" opacity="1" fill="#ed834e" fill-opacity="1"></use><g><use xlink:href="#e2JLXLJuYq" opacity="1" fill-opacity="0" stroke="#000000" stroke-width="1" stroke-opacity="0"></use></g></g><g><use xlink:href="#a1SfRHZA32" opacity="1" fill="#4f9e91" fill-opacity="1"></use><g><use xlink:href="#a1SfRHZA32" opacity="1" fill-opacity="0" stroke="#000000" stroke-width="1" stroke-opacity="0"></use></g></g><g><use xlink:href="#hU7Eji4NP" opacity="1" fill="#ebcc6e" fill-opacity="1"></use><g><use xlink:href="#hU7Eji4NP" opacity="1" fill-opacity="0" stroke="#000000" stroke-width="1" stroke-opacity="0"></use></g></g><g><use xlink:href="#a4sJPp57uE" opacity="1" fill="#ebe1c5" fill-opacity="1"></use><g><use xlink:href="#a4sJPp57uE" opacity="1" fill-opacity="0" stroke="#000000" stroke-width="1" stroke-opacity="0"></use></g></g><g><use xlink:href="#a1noN2YCm2" opacity="1" fill="#3d3a2c" fill-opacity="1"></use><g><use xlink:href="#a1noN2YCm2" opacity="1" fill-opacity="0" stroke="#000000" stroke-width="1" stroke-opacity="0"></use></g></g><g><use xlink:href="#aACcv8pn0" opacity="1" fill="#3d3a2c" fill-opacity="1"></use><g><use xlink:href="#aACcv8pn0" opacity="1" fill-opacity="0" stroke="#000000" stroke-width="1" stroke-opacity="0"></use></g></g><g><use xlink:href="#m2yIcx6piV" opacity="1" fill="#3d3a2c" fill-opacity="1"></use><g><use xlink:href="#m2yIcx6piV" opacity="1" fill-opacity="0" stroke="#000000" stroke-width="1" stroke-opacity="0"></use></g></g><g><use xlink:href="#e6tT3MogQ" opacity="1" fill="#3d3a2c" fill-opacity="1"></use><g><use xlink:href="#e6tT3MogQ" opacity="1" fill-opacity="0" stroke="#000000" stroke-width="1" stroke-opacity="0"></use></g></g><g><use xlink:href="#c5z1ROf4Du" opacity="1" fill="#3d3a2c" fill-opacity="1"></use><g><use xlink:href="#c5z1ROf4Du" opacity="1" fill-opacity="0" stroke="#000000" stroke-width="1" stroke-opacity="0"></use></g></g><g><use xlink:href="#eblQfdUC5" opacity="1" fill="#3d3a2c" fill-opacity="1"></use><g><use xlink:href="#eblQfdUC5" opacity="1" fill-opacity="0" stroke="#000000" stroke-width="1" stroke-opacity="0"></use></g></g><g><use xlink:href="#b3OkjCuI7a" opacity="1" fill="#3d3a2c" fill-opacity="1"></use><g><use xlink:href="#b3OkjCuI7a" opacity="1" fill-opacity="0" stroke="#000000" stroke-width="1" stroke-opacity="0"></use></g></g><g><use xlink:href="#k27lxpOYd9" opacity="1" fill="#3d3a2c" fill-opacity="1"></use><g><use xlink:href="#k27lxpOYd9" opacity="1" fill-opacity="0" stroke="#000000" stroke-width="1" stroke-opacity="0"></use></g></g><g><use xlink:href="#d1otxazRf" opacity="1" fill="#3d3a2c" fill-opacity="1"></use><g><use xlink:href="#d1otxazRf" opacity="1" fill-opacity="0" stroke="#000000" stroke-width="1" stroke-opacity="0"></use></g></g></g></g></svg>