<?xml version="1.0" encoding="UTF-8" standalone="no"?>
<!DOCTYPE svg PUBLIC "-//W3C//DTD SVG 1.1//EN" "http://www.w3.org/Graphics/SVG/1.1/DTD/svg11.dtd">
<svg version="1.1" xmlns="http://www.w3.org/2000/svg" xmlns:xlink="http://www.w3.org/1999/xlink" preserveAspectRatio="xMidYMid meet" viewBox="0 0 143.5 39.89" width="143.5" height="39.89"><defs><path d="M76.15 4.35C77.54 5.74 77.54 7.99 76.15 9.38C75.3 10.23 68.53 16.99 67.69 17.84C65.26 14.59 65.52 9.96 68.48 7C68.65 6.82 69.54 5.94 71.12 4.35C73.55 3.43 75.22 3.43 76.15 4.35Z" id="dME59tIdT"></path><path d="M83.22 28.47C81.83 29.86 79.58 29.86 78.19 28.47C77.35 27.62 70.58 20.85 69.73 20.01C72.99 17.58 77.62 17.84 80.57 20.8C80.75 20.98 81.63 21.86 83.22 23.44C84.14 25.87 84.14 27.54 83.22 28.47Z" id="a3c59mxqRQ"></path><path d="M59.1 35.54C57.71 34.15 57.71 31.9 59.1 30.51C59.95 29.67 66.72 22.9 67.56 22.05C69.99 25.31 69.73 29.94 66.77 32.9C66.6 33.07 65.71 33.95 64.13 35.54C61.7 36.46 60.03 36.46 59.1 35.54Z" id="c6dxWRep8"></path><path d="M52.03 11.42C53.42 10.04 55.67 10.04 57.06 11.42C57.9 12.27 64.67 19.04 65.52 19.89C62.26 22.31 57.63 22.05 54.68 19.09C54.5 18.92 53.62 18.04 52.03 16.45C51.11 14.02 51.11 12.35 52.03 11.42Z" id="cgzOrKgmJ"></path><path d="M72.08 26.45C72.49 26.86 75.74 30.11 76.15 30.51C76.16 30.52 76.17 30.53 76.18 30.54C76.18 30.83 76.18 33.15 76.18 33.44C76.18 35.41 74.59 37 72.62 37C71.03 37 69.68 35.95 69.23 34.5C71.28 32.23 72.23 29.32 72.08 26.45Z" id="f3nLYXkU73"></path><path d="M61.12 24.41C60.72 24.81 57.46 28.06 57.06 28.47C57.05 28.48 57.04 28.49 57.03 28.5C56.74 28.5 54.42 28.5 54.13 28.5C52.16 28.5 50.57 26.91 50.57 24.95C50.57 23.35 51.62 22 53.07 21.55C55.34 23.6 58.26 24.55 61.12 24.41Z" id="bSHUqnuYe"></path><path d="M74.13 15.49C74.53 15.08 77.79 11.83 78.19 11.42C78.2 11.41 78.21 11.4 78.22 11.39C78.51 11.39 80.83 11.39 81.12 11.39C83.09 11.39 84.68 12.99 84.68 14.95C84.68 16.54 83.63 17.89 82.18 18.34C79.91 16.29 76.99 15.34 74.13 15.49Z" id="a14WDn5v"></path><path d="M63.17 13.44C62.76 13.04 59.51 9.79 59.1 9.38C59.09 9.37 59.08 9.36 59.07 9.35C59.07 9.06 59.07 6.74 59.07 6.45C59.07 4.49 60.66 2.9 62.63 2.9C64.22 2.9 65.57 3.94 66.02 5.39C63.97 7.67 63.02 10.58 63.17 13.44Z" id="d5uOcq2CHi"></path><path d="M250.23 104.07C250.23 104.19 250.23 105.2 250.23 105.32C248.09 104.76 245.71 105.32 244.04 107C241.52 109.52 241.52 113.6 244.04 116.11C244.12 116.2 244.83 116.91 244.92 117C243.01 118.12 241.73 120.19 241.73 122.57C241.73 126.12 244.62 129.01 248.17 129.01C248.3 129.01 249.3 129.01 249.43 129.01C248.87 131.15 249.43 133.52 251.11 135.2C253.62 137.72 257.7 137.72 260.22 135.2C260.48 134.94 262.6 132.82 262.86 132.56C265.2 130.23 266.29 127.12 266.13 124.07C266.54 124.48 269.79 127.73 270.19 128.13C272.71 130.65 276.79 130.65 279.31 128.13C281.83 125.62 281.83 121.54 279.31 119.02C279.22 118.93 278.51 118.22 278.42 118.13C280.33 117.01 281.62 114.94 281.62 112.57C281.62 109.01 278.73 106.12 275.17 106.12C275.05 106.12 274.04 106.12 273.92 106.12C274.48 103.98 273.92 101.61 272.24 99.93C269.72 97.41 265.64 97.41 263.12 99.93C262.86 100.19 260.75 102.31 260.48 102.57C258.15 104.9 257.06 108.01 257.21 111.06C256.81 110.66 253.56 107.41 253.15 107C253.14 106.99 253.13 106.98 253.12 106.97C253.12 106.68 253.12 104.36 253.12 104.07C253.12 102.11 254.71 100.51 256.67 100.51C258.27 100.51 259.62 101.56 260.07 103.01C260.2 102.86 260.34 102.72 260.48 102.57C260.66 102.4 262.06 100.99 262.24 100.82C261.12 98.91 259.05 97.62 256.67 97.62C253.11 97.62 250.23 100.51 250.23 104.07ZM272.24 109.04C271.83 109.45 268.58 112.7 268.18 113.11C271.04 112.96 273.95 113.91 276.23 115.96C277.67 115.51 278.72 114.16 278.72 112.57C278.72 110.6 277.13 109.01 275.17 109.01C274.98 109.01 274.01 109.01 272.27 109.01C272.26 109.03 272.25 109.04 272.24 109.04ZM251.11 126.09C251.51 125.68 254.76 122.43 255.17 122.02C252.3 122.17 249.39 121.22 247.12 119.17C245.67 119.62 244.62 120.97 244.62 122.57C244.62 124.53 246.21 126.12 248.17 126.12C248.37 126.12 249.33 126.12 251.08 126.12C251.09 126.11 251.1 126.1 251.11 126.09ZM246.68 118.76C246.68 118.76 246.68 118.76 246.68 118.76C246.79 118.86 246.9 118.97 247.01 119.07C246.9 118.97 246.79 118.86 246.68 118.76ZM261.11 134.32C261.28 134.14 262.69 132.73 262.86 132.56C263.01 132.42 263.14 132.27 263.28 132.12C263.73 133.57 265.08 134.62 266.67 134.62C268.63 134.62 270.23 133.03 270.23 131.06C270.23 130.77 270.23 128.45 270.23 128.16C271.06 128.99 272.06 129.53 273.12 129.81C273.12 129.94 273.12 130.94 273.12 131.06C273.12 134.62 270.23 137.51 266.67 137.51C264.3 137.51 262.23 136.23 261.11 134.32ZM265.17 101.97C264.9 102.24 262.79 104.35 262.53 104.62C259.57 107.57 259.3 112.2 261.73 115.46C262.58 114.61 269.35 107.85 270.19 107C271.58 105.61 271.58 103.36 270.19 101.97C268.81 100.59 266.56 100.59 265.17 101.97ZM277.26 121.06C277 120.8 274.89 118.68 274.62 118.42C271.66 115.46 267.03 115.2 263.78 117.63C264.62 118.47 271.39 125.24 272.24 126.09C273.63 127.48 275.88 127.48 277.26 126.09C278.65 124.7 278.65 122.45 277.26 121.06ZM253.15 133.16C251.76 131.77 251.76 129.52 253.15 128.13C254 127.29 260.76 120.52 261.61 119.67C264.04 122.93 263.78 127.56 260.82 130.51C260.64 130.69 259.76 131.57 258.18 133.16C255.75 134.08 254.08 134.08 253.15 133.16ZM246.08 114.07C246.34 114.33 248.46 116.45 248.72 116.71C251.68 119.67 256.31 119.93 259.57 117.5C258.72 116.66 251.95 109.89 251.11 109.04C249.72 107.66 247.47 107.66 246.08 109.04C244.69 110.43 244.69 112.68 246.08 114.07Z" id="a4ddruNq3"></path><path d="M3.14 13.04L3.14 22.86L8.57 22.86L8.57 25.52L-0.02 25.52L-0.02 13.04L3.14 13.04Z" id="c2dfhkoUYi"></path><path d="M11.52 25.22C10.72 24.82 10.1 24.29 9.66 23.61C9.23 22.92 9.02 22.13 9.02 21.23C9.02 20.34 9.23 19.55 9.66 18.88C10.1 18.19 10.72 17.65 11.52 17.27C12.32 16.88 13.25 16.68 14.31 16.68C15.37 16.68 16.29 16.88 17.09 17.27C17.89 17.65 18.5 18.19 18.93 18.88C19.37 19.55 19.59 20.34 19.59 21.23C19.59 22.13 19.37 22.92 18.93 23.61C18.5 24.29 17.89 24.82 17.09 25.22C16.29 25.6 15.37 25.79 14.31 25.79C13.25 25.79 12.32 25.6 11.52 25.22ZM15.81 22.79C16.19 22.41 16.38 21.89 16.38 21.23C16.38 20.58 16.19 20.07 15.81 19.7C15.44 19.32 14.94 19.13 14.31 19.13C13.68 19.13 13.17 19.32 12.79 19.7C12.42 20.07 12.23 20.58 12.23 21.23C12.23 21.89 12.42 22.41 12.79 22.79C13.17 23.16 13.68 23.34 14.31 23.34C14.94 23.34 15.44 23.16 15.81 22.79Z" id="f1nUbqOgMY"></path><path d="M23.76 29.46C23.19 29.36 22.7 29.21 22.28 29.04C22.28 28.82 22.28 27.08 22.28 26.86C23.22 27.26 24.29 27.46 25.5 27.46C26.36 27.46 26.99 27.29 27.37 26.93C27.76 26.57 27.96 26.05 27.96 25.36C27.96 25.31 27.96 24.89 27.96 24.84C27.61 25.14 27.19 25.37 26.67 25.54C26.17 25.7 25.64 25.79 25.07 25.79C24.16 25.79 23.36 25.6 22.67 25.22C21.98 24.83 21.44 24.3 21.05 23.61C20.67 22.92 20.48 22.13 20.48 21.23C20.48 20.33 20.67 19.53 21.05 18.84C21.43 18.15 21.97 17.62 22.66 17.25C23.35 16.87 24.14 16.68 25.03 16.68C26.26 16.68 27.27 17.05 28.07 17.8C28.07 17.75 28.07 17.46 28.07 16.95L31.1 16.95C31.1 21.74 31.1 24.4 31.1 24.93C31.1 26.42 30.64 27.57 29.73 28.39C28.82 29.21 27.41 29.63 25.5 29.63C24.92 29.63 24.35 29.57 23.76 29.46ZM27.16 22.98C27.54 22.73 27.8 22.4 27.96 21.98C27.96 21.83 27.96 20.63 27.96 20.48C27.79 20.07 27.52 19.74 27.14 19.5C26.76 19.25 26.33 19.13 25.85 19.13C25.21 19.13 24.69 19.32 24.3 19.7C23.91 20.07 23.71 20.57 23.71 21.22C23.71 21.87 23.91 22.39 24.3 22.79C24.69 23.17 25.21 23.36 25.85 23.36C26.34 23.36 26.77 23.23 27.16 22.98Z" id="d36WsAIEvV"></path><path d="M34.4 25.22C33.6 24.82 32.98 24.29 32.54 23.61C32.11 22.92 31.9 22.13 31.9 21.23C31.9 20.34 32.11 19.55 32.54 18.88C32.98 18.19 33.6 17.65 34.4 17.27C35.2 16.88 36.13 16.68 37.18 16.68C38.24 16.68 39.17 16.88 39.97 17.27C40.77 17.65 41.38 18.19 41.81 18.88C42.25 19.55 42.47 20.34 42.47 21.23C42.47 22.13 42.25 22.92 41.81 23.61C41.38 24.29 40.77 24.82 39.97 25.22C39.17 25.6 38.24 25.79 37.18 25.79C36.13 25.79 35.2 25.6 34.4 25.22ZM38.68 22.79C39.07 22.41 39.26 21.89 39.26 21.23C39.26 20.58 39.07 20.07 38.68 19.7C38.32 19.32 37.82 19.13 37.18 19.13C36.55 19.13 36.05 19.32 35.67 19.7C35.3 20.07 35.11 20.58 35.11 21.23C35.11 21.89 35.3 22.41 35.67 22.79C36.05 23.16 36.55 23.34 37.18 23.34C37.82 23.34 38.32 23.16 38.68 22.79Z" id="c1iEzZft7V"></path><path d="M96.04 13.04L96.04 25.52L92.88 25.52L92.88 13.04L96.04 13.04Z" id="b1Bn5Lhpzv"></path><path d="M100.68 16.95C100.67 17.46 100.67 17.75 100.68 17.8C101.47 17.05 102.48 16.68 103.71 16.68C104.6 16.68 105.4 16.87 106.09 17.25C106.78 17.62 107.31 18.15 107.69 18.84C108.07 19.52 108.26 20.31 108.26 21.22C108.26 22.11 108.07 22.91 107.69 23.61C107.31 24.3 106.78 24.83 106.09 25.22C105.41 25.6 104.62 25.79 103.71 25.79C103.14 25.79 102.59 25.7 102.07 25.52C101.56 25.35 101.13 25.12 100.78 24.82C100.78 25.13 100.78 26.66 100.78 29.43L97.64 29.43L97.64 16.95L100.68 16.95ZM104.44 22.77C104.84 22.39 105.03 21.87 105.03 21.22C105.03 20.56 104.84 20.05 104.44 19.68C104.05 19.3 103.53 19.11 102.89 19.11C102.41 19.11 101.98 19.23 101.6 19.48C101.22 19.72 100.95 20.05 100.78 20.47C100.78 20.62 100.78 21.83 100.78 21.98C100.95 22.4 101.22 22.73 101.6 22.98C101.98 23.22 102.41 23.34 102.89 23.34C103.53 23.34 104.05 23.15 104.44 22.77Z" id="a8C4Kq0yn"></path><path d="M110.79 25.57C110.04 25.44 109.44 25.25 109 25C109 24.77 109 22.93 109 22.7C109.49 22.98 110.07 23.22 110.75 23.41C111.44 23.59 112.07 23.68 112.65 23.68C113.06 23.68 113.37 23.65 113.56 23.59C113.75 23.53 113.84 23.41 113.84 23.23C113.84 23.09 113.78 22.98 113.65 22.89C113.53 22.8 113.3 22.7 112.97 22.61C112.65 22.5 112.27 22.39 111.84 22.27C111.12 22.05 110.54 21.83 110.13 21.61C109.71 21.38 109.4 21.1 109.2 20.75C109 20.41 108.9 19.97 108.9 19.45C108.9 18.52 109.26 17.83 109.98 17.38C110.72 16.91 111.73 16.68 113 16.68C113.62 16.68 114.27 16.75 114.95 16.88C115.64 17.01 116.16 17.18 116.5 17.39C116.5 17.62 116.5 19.43 116.5 19.66C116.15 19.42 115.67 19.23 115.07 19.07C114.49 18.92 113.94 18.84 113.43 18.84C113.03 18.84 112.71 18.88 112.48 18.97C112.26 19.04 112.15 19.17 112.15 19.36C112.15 19.54 112.26 19.67 112.48 19.77C112.71 19.86 113.12 19.98 113.7 20.13C114.08 20.22 114.24 20.26 114.18 20.25C114.94 20.45 115.53 20.68 115.95 20.93C116.37 21.18 116.66 21.48 116.82 21.82C117 22.16 117.09 22.58 117.09 23.11C117.09 23.93 116.73 24.58 116.02 25.07C115.32 25.55 114.29 25.79 112.95 25.79C112.26 25.79 111.54 25.72 110.79 25.57Z" id="a7zV9GQpj"></path><path d="M119.12 24.8C118.54 24.15 118.25 23.29 118.25 22.22C118.25 21.86 118.25 20.11 118.25 16.95L121.39 16.95C121.39 19.89 121.39 21.53 121.39 21.86C121.39 22.85 121.84 23.34 122.73 23.34C123.14 23.34 123.51 23.24 123.84 23.05C124.17 22.86 124.45 22.58 124.66 22.22C124.66 21.86 124.66 20.11 124.66 16.95L127.8 16.95L127.8 25.52L124.77 25.52C124.77 24.96 124.77 24.65 124.77 24.59C124.4 24.98 123.95 25.28 123.43 25.48C122.9 25.69 122.36 25.79 121.78 25.79C120.61 25.79 119.72 25.46 119.12 24.8Z" id="cCyHdEy0p"></path><path d="M132.14 17.14C132.16 17.7 132.18 18 132.18 18.07C132.52 17.67 132.92 17.36 133.37 17.14C133.83 16.9 134.31 16.77 134.84 16.75C135.48 16.72 136 16.79 136.38 16.96C136.79 17.14 137.11 17.41 137.37 17.78C137.71 17.4 138.13 17.11 138.63 16.88C139.14 16.65 139.65 16.53 140.17 16.51C141.3 16.46 142.12 16.71 142.62 17.27C143.12 17.82 143.4 18.64 143.44 19.72C143.46 20.08 143.54 21.91 143.69 25.2L140.7 25.33C140.56 22.31 140.48 20.64 140.47 20.3C140.45 19.83 140.34 19.48 140.15 19.28C139.97 19.07 139.66 18.98 139.25 19C138.71 19.02 138.29 19.23 137.97 19.63C137.99 19.83 138.01 20.14 138.03 20.55C138.05 20.88 138.12 22.51 138.25 25.44L135.26 25.58C135.12 22.48 135.04 20.77 135.02 20.42C135 19.98 134.91 19.67 134.75 19.49C134.58 19.3 134.31 19.22 133.91 19.24C133.31 19.27 132.8 19.63 132.39 20.33C132.41 20.68 132.49 22.47 132.63 25.7L129.62 25.83L129.23 17.27L132.14 17.14Z" id="acHV1E91t"></path></defs><g><g><g><use xlink:href="#dME59tIdT" opacity="1" fill="#4f9e91" fill-opacity="1"></use><g><use xlink:href="#dME59tIdT" opacity="1" fill-opacity="0" stroke="#000000" stroke-width="1" stroke-opacity="0"></use></g></g><g><use xlink:href="#a3c59mxqRQ" opacity="1" fill="#ebe1c5" fill-opacity="1"></use><g><use xlink:href="#a3c59mxqRQ" opacity="1" fill-opacity="0" stroke="#000000" stroke-width="1" stroke-opacity="0"></use></g></g><g><use xlink:href="#c6dxWRep8" opacity="1" fill="#ebcc6e" fill-opacity="1"></use><g><use xlink:href="#c6dxWRep8" opacity="1" fill-opacity="0" stroke="#000000" stroke-width="1" stroke-opacity="0"></use></g></g><g><use xlink:href="#cgzOrKgmJ" opacity="1" fill="#ed834e" fill-opacity="1"></use><g><use xlink:href="#cgzOrKgmJ" opacity="1" fill-opacity="0" stroke="#000000" stroke-width="1" stroke-opacity="0"></use></g></g><g><use xlink:href="#f3nLYXkU73" opacity="1" fill="#ed834e" fill-opacity="1"></use><g><use xlink:href="#f3nLYXkU73" opacity="1" fill-opacity="0" stroke="#000000" stroke-width="1" stroke-opacity="0"></use></g></g><g><use xlink:href="#bSHUqnuYe" opacity="1" fill="#4f9e91" fill-opacity="1"></use><g><use xlink:href="#bSHUqnuYe" opacity="1" fill-opacity="0" stroke="#000000" stroke-width="1" stroke-opacity="0"></use></g></g><g><use xlink:href="#a14WDn5v" opacity="1" fill="#ebcc6e" fill-opacity="1"></use><g><use xlink:href="#a14WDn5v" opacity="1" fill-opacity="0" stroke="#000000" stroke-width="1" stroke-opacity="0"></use></g></g><g><use xlink:href="#d5uOcq2CHi" opacity="1" fill="#ebe1c5" fill-opacity="1"></use><g><use xlink:href="#d5uOcq2CHi" opacity="1" fill-opacity="0" stroke="#000000" stroke-width="1" stroke-opacity="0"></use></g></g><g><use xlink:href="#a4ddruNq3" opacity="1" fill="#3d3a2c" fill-opacity="1"></use><g><use xlink:href="#a4ddruNq3" opacity="1" fill-opacity="0" stroke="#000000" stroke-width="1" stroke-opacity="0"></use></g></g><g><use xlink:href="#c2dfhkoUYi" opacity="1" fill="#ffffff" fill-opacity="1"></use><g><use xlink:href="#c2dfhkoUYi" opacity="1" fill-opacity="0" stroke="#000000" stroke-width="1" stroke-opacity="0"></use></g></g><g><use xlink:href="#f1nUbqOgMY" opacity="1" fill="#ffffff" fill-opacity="1"></use><g><use xlink:href="#f1nUbqOgMY" opacity="1" fill-opacity="0" stroke="#000000" stroke-width="1" stroke-opacity="0"></use></g></g><g><use xlink:href="#d36WsAIEvV" opacity="1" fill="#ffffff" fill-opacity="1"></use><g><use xlink:href="#d36WsAIEvV" opacity="1" fill-opacity="0" stroke="#000000" stroke-width="1" stroke-opacity="0"></use></g></g><g><use xlink:href="#c1iEzZft7V" opacity="1" fill="#ffffff" fill-opacity="1"></use><g><use xlink:href="#c1iEzZft7V" opacity="1" fill-opacity="0" stroke="#000000" stroke-width="1" stroke-opacity="0"></use></g></g><g><use xlink:href="#b1Bn5Lhpzv" opacity="1" fill="#ffffff" fill-opacity="1"></use><g><use xlink:href="#b1Bn5Lhpzv" opacity="1" fill-opacity="0" stroke="#000000" stroke-width="1" stroke-opacity="0"></use></g></g><g><use xlink:href="#a8C4Kq0yn" opacity="1" fill="#ffffff" fill-opacity="1"></use><g><use xlink:href="#a8C4Kq0yn" opacity="1" fill-opacity="0" stroke="#000000" stroke-width="1" stroke-opacity="0"></use></g></g><g><use xlink:href="#a7zV9GQpj" opacity="1" fill="#ffffff" fill-opacity="1"></use><g><use xlink:href="#a7zV9GQpj" opacity="1" fill-opacity="0" stroke="#000000" stroke-width="1" stroke-opacity="0"></use></g></g><g><use xlink:href="#cCyHdEy0p" opacity="1" fill="#ffffff" fill-opacity="1"></use><g><use xlink:href="#cCyHdEy0p" opacity="1" fill-opacity="0" stroke="#000000" stroke-width="1" stroke-opacity="0"></use></g></g><g><use xlink:href="#acHV1E91t" opacity="1" fill="#f8f8f8" fill-opacity="1"></use><g><use xlink:href="#acHV1E91t" opacity="1" fill-opacity="0" stroke="#000000" stroke-width="1" stroke-opacity="0"></use></g></g></g></g></svg>